<?xml version="1.0" encoding="utf-8"?>
<!-- Generator: Adobe Illustrator 25.2.0, SVG Export Plug-In . SVG Version: 6.00 Build 0)  -->
<svg version="1.1" id="Camada_1" xmlns="http://www.w3.org/2000/svg" xmlns:xlink="http://www.w3.org/1999/xlink" x="0px" y="0px"
	 viewBox="0 0 1200 1200" style="enable-background:new 0 0 1200 1200;" xml:space="preserve">
<style type="text/css">
	.st0{fill:url(#SVGID_1_);}
	.st1{fill:url(#SVGID_2_);}
	.st2{fill:url(#SVGID_3_);}
	.st3{fill:#8E7923;}
</style>
<g>
	
		<linearGradient id="SVGID_1_" gradientUnits="userSpaceOnUse" x1="140.2486" y1="1640.5579" x2="645.7913" y2="1640.5579" gradientTransform="matrix(1 0 0 -1 202.6772 2221.2126)">
		<stop  offset="0" style="stop-color:#B2812A"/>
		<stop  offset="0.1142" style="stop-color:#C69C44"/>
		<stop  offset="0.2107" style="stop-color:#D0AD55"/>
		<stop  offset="0.4695" style="stop-color:#F5E071"/>
		<stop  offset="0.6675" style="stop-color:#EEC173"/>
		<stop  offset="0.7995" style="stop-color:#C59137"/>
		<stop  offset="0.9162" style="stop-color:#B2812A"/>
	</linearGradient>
	<path class="st0" d="M386.31,992.86h-43.38V381.1c29.39-135.71,154.27-225.28,280.36-211.2c107.44,12,198.8,97.35,221.86,211.2
		c2.58,14.63,18.45,114.68-52.27,201.6c-72.13,88.64-176.05,92.04-190.49,92.27c-19.81,0.29-50.62-1.6-85.77-13.87
		c-35.78-12.48-61.41-30.57-76.8-43.29c3.02-13.3,6.04-26.61,9.07-39.91c13.57,13.49,39.85,35.98,79.47,49.6
		c30.13,10.37,56.68,11.71,74.05,11.2c17.06-0.24,85.29-3.19,142.48-56.53c71.84-66.97,67.49-158.58,66.67-171.2
		c-2.36-20.45-12.87-89.37-71.46-145.07c-16.02-15.23-62.61-58.21-134.88-62c-79.4-4.19-135.65,41.75-157.91,63.6
		c-43.88,43.08-57.77,92.86-62.39,114.14C385.36,585.38,385.84,789.11,386.31,992.86z"/>
	
		<linearGradient id="SVGID_2_" gradientUnits="userSpaceOnUse" x1="609.9546" y1="1717.3446" x2="840.7048" y2="1717.3446" gradientTransform="matrix(1 0 0 -1 202.6772 2221.2126)">
		<stop  offset="0" style="stop-color:#B2812A"/>
		<stop  offset="0.1142" style="stop-color:#C69C44"/>
		<stop  offset="0.2107" style="stop-color:#D0AD55"/>
		<stop  offset="0.4695" style="stop-color:#F5E071"/>
		<stop  offset="0.6675" style="stop-color:#EEC173"/>
		<stop  offset="0.7995" style="stop-color:#C59137"/>
		<stop  offset="0.9162" style="stop-color:#B2812A"/>
	</linearGradient>
	<polygon class="st1" points="812.63,182 812.63,14.88 1043.38,14.88 1043.38,992.86 812.63,992.86 812.63,664.85 848.48,624.31 
		848.48,954.99 1007.11,954.99 1007.11,51.15 848.48,51.15 848.48,218.26 	"/>
	<g id="Camada_2_2_">
		
			<linearGradient id="SVGID_3_" gradientUnits="userSpaceOnUse" x1="-46.0592" y1="1718.8557" x2="183.6333" y2="1718.8557" gradientTransform="matrix(1 0 0 -1 202.6772 2221.2126)">
			<stop  offset="0" style="stop-color:#B2812A"/>
			<stop  offset="0.1142" style="stop-color:#C69C44"/>
			<stop  offset="0.2107" style="stop-color:#D0AD55"/>
			<stop  offset="0.4695" style="stop-color:#F5E071"/>
			<stop  offset="0.6675" style="stop-color:#EEC173"/>
			<stop  offset="0.7995" style="stop-color:#C59137"/>
			<stop  offset="0.9162" style="stop-color:#B2812A"/>
		</linearGradient>
		<polygon class="st2" points="156.62,11.33 156.62,993.39 304.53,993.39 304.53,954.28 195.73,954.28 195.73,49.02 347.2,49.02 
			347.2,219.68 386.31,180.58 386.31,11.33 		"/>
	</g>
</g>
<g>
	<path class="st3" d="M267.31,1077.31l-11.62,18.48l-1.97-1.36c0.91-1.51,1.36-2.64,1.36-3.4c0-1.56-2.7-3.77-8.11-6.64
		c-10.4-5.63-21.04-8.45-31.94-8.45c-12.68,0-23.35,3.55-32.03,10.67c-9.94,8.07-14.91,18.97-14.91,32.69
		c0,13.37,4.74,24.01,14.24,31.93c8.73,7.32,19.88,10.97,33.47,10.97c7.17,0,14-1.12,20.49-3.37c6.48-2.24,11.95-5.39,16.39-9.42
		v-19.09h-24.46c-2.12,0-3.62,0.33-4.51,0.98c-0.88,0.66-1.55,1.95-2.01,3.87h-2.42v-19.54h2.42c0.46,1.92,1.13,3.21,2.01,3.86
		c0.89,0.66,2.39,0.98,4.51,0.98h40.68v2.43c-1.92,0.5-3.21,1.19-3.87,2.04c-0.66,0.86-0.99,2.35-0.99,4.47v13.4
		c0,2.12,0.33,3.61,0.99,4.46c0.66,0.86,1.94,1.54,3.87,2.05v2.12c-5.71,5.1-11.08,9.06-16.14,11.89
		c-10.95,6.16-23.45,9.24-37.48,9.24c-17.27,0-31.23-4.67-41.88-14.01c-5.25-4.6-9.42-10.1-12.49-16.51
		c-3.49-7.32-5.23-15.04-5.23-23.17c0-11.66,3.41-22.01,10.22-31.05c6.31-8.33,14.79-14.42,25.45-18.25
		c7.52-2.67,15.6-4.01,24.23-4.01c7.57,0,14.59,0.91,21.05,2.72c6.47,1.82,13.43,4.82,20.9,9.01c2.17,1.21,3.51,1.82,4.02,1.82
		c0.81,0,2.04-1.06,3.71-3.18L267.31,1077.31z"/>
	<path class="st3" d="M305.26,1124.26v37.57c0,2.07,0.32,3.54,0.98,4.42c0.66,0.88,1.94,1.58,3.87,2.08v2.42h-21.59v-2.42
		c1.92-0.5,3.21-1.19,3.87-2.05c0.66-0.86,0.98-2.34,0.98-4.46v-85.5c0-2.12-0.32-3.62-0.98-4.51s-1.94-1.55-3.87-2.01v-2.42h56.72
		c7.78,0,13.92,0.42,18.45,1.25c4.52,0.83,8.44,2.29,11.78,4.36c3.43,2.12,6.21,5.03,8.33,8.72c2.43,4.2,3.64,8.93,3.64,14.18
		c0,7.89-2.61,14.32-7.84,19.3c-5.22,4.98-12.41,7.82-21.54,8.53l26.28,40.83c1.57,2.52,3.84,3.78,6.81,3.78v2.42h-23.92v-2.42
		c2.47-0.4,3.71-1.11,3.71-2.12c0-0.51-0.89-2.14-2.66-4.92l-23.48-37.04H305.26z M305.26,1114.41h41.88
		c5.71,0,10.01-0.24,12.91-0.72c2.9-0.48,5.47-1.35,7.68-2.61c5.2-3.03,7.8-8.11,7.8-15.22c0-7.17-2.67-12.27-8.03-15.3
		c-2.37-1.31-5.01-2.19-7.91-2.65c-2.9-0.45-7.41-0.68-13.52-0.68h-40.81V1114.41z"/>
	<path class="st3" d="M422.03,1076.32v57.18c0,6.76,0.36,11.52,1.06,14.27c0.71,2.75,2.17,5.14,4.4,7.16
		c5.4,4.85,15.47,7.27,30.22,7.27c16.06,0,26.58-2.85,31.58-8.55c1.67-1.92,2.78-4.2,3.33-6.86c0.55-2.65,0.83-7.08,0.83-13.29
		v-57.18c0-2.07-0.33-3.54-0.99-4.43c-0.66-0.88-1.94-1.58-3.87-2.08v-2.42h20.53v2.42c-1.91,0.45-3.21,1.12-3.86,2.01
		c-0.66,0.88-0.99,2.39-0.99,4.51v59.52c0,7.32-0.71,12.9-2.12,16.74c-2.63,6.87-7.57,11.92-14.81,15.15
		c-7.24,3.23-17.28,4.85-30.11,4.85c-19.19,0-32.31-3.71-39.37-11.13c-2.89-2.98-4.89-6.37-6.03-10.18
		c-1.14-3.81-1.7-8.95-1.7-15.41v-59.52c0-2.12-0.33-3.62-0.98-4.51c-0.66-0.88-1.95-1.55-3.87-2.01v-2.42h21.59v2.42
		c-1.92,0.5-3.21,1.2-3.87,2.08C422.36,1072.78,422.03,1074.25,422.03,1076.32z"/>
	<path class="st3" d="M546.54,1124.26v38.55c0,1.56,0.35,2.75,1.05,3.56c0.71,0.81,1.97,1.47,3.79,1.97v2.42H529.8v-2.42
		c1.82-0.5,3.08-1.16,3.79-1.97c0.71-0.81,1.05-2,1.05-3.56v-87.55c0-1.52-0.35-2.68-1.05-3.48c-0.71-0.81-1.97-1.47-3.79-1.97
		v-2.42h54.38c7.62,0,13.56,0.4,17.8,1.21c4.24,0.81,8.03,2.28,11.37,4.4c3.48,2.12,6.28,5.02,8.4,8.71
		c2.37,4.14,3.56,8.79,3.56,13.94c0,7.07-2.17,13.13-6.51,18.18c-3.33,3.89-7.57,6.6-12.69,8.14c-5.13,1.54-12.44,2.31-21.93,2.31
		H546.54z M546.54,1114.41h38.77c5.76,0,10.04-0.22,12.84-0.68c2.8-0.46,5.31-1.34,7.53-2.65c5.16-3.03,7.73-8.11,7.73-15.22
		c0-7.17-2.57-12.27-7.73-15.3c-2.22-1.31-4.72-2.19-7.49-2.65c-2.78-0.45-7.07-0.68-12.88-0.68h-38.77V1114.41z"/>
	<path class="st3" d="M700.88,1065.57c18.23,0,32.92,4.77,44.07,14.31c6.26,5.3,10.95,11.79,14.09,19.46
		c2.57,6.32,3.87,13.1,3.87,20.37c0,9.85-2.8,19.06-8.41,27.64c-6.16,9.49-14.72,16.34-25.67,20.53c-8.18,3.13-17.45,4.69-27.8,4.69
		c-18.13,0-32.74-4.77-43.84-14.32c-6.21-5.35-10.91-11.84-14.09-19.46c-2.57-6.26-3.87-12.85-3.87-19.77
		c0-10.25,2.78-19.69,8.33-28.32c6.05-9.34,14.64-16.16,25.75-20.45C681.09,1067.29,690.28,1065.72,700.88,1065.57z M700.88,1075.95
		c-15.51,0-27.77,4.34-36.81,13.02c-8.28,7.98-12.42,18-12.42,30.06c0,12.12,4.14,22.16,12.42,30.14
		c8.98,8.68,21.3,13.02,36.96,13.02c15.71,0,28.07-4.34,37.11-13.02c8.22-7.98,12.35-17.82,12.35-29.54
		c0-12.67-4.12-22.89-12.35-30.67c-4.95-4.64-10.25-7.9-15.9-9.77C715.98,1077.08,708.86,1076,700.88,1075.95z"/>
	<path class="st3" d="M909.37,1122.52h-70.81v39.31c0,2.12,0.31,3.61,0.94,4.46c0.63,0.86,1.93,1.54,3.9,2.05v2.42h-21.59v-2.42
		c1.97-0.5,3.27-1.19,3.9-2.05c0.63-0.86,0.94-2.34,0.94-4.46v-85.5c0-2.12-0.32-3.62-0.98-4.51c-0.66-0.88-1.94-1.55-3.87-2.01
		v-2.42h21.59v2.42c-1.92,0.5-3.21,1.19-3.87,2.05c-0.66,0.86-0.98,2.34-0.98,4.46v36.35h70.81v-36.35c0-2.12-0.33-3.62-0.99-4.51
		c-0.65-0.88-1.94-1.55-3.86-2.01v-2.42h21.58v2.42c-1.91,0.5-3.21,1.19-3.87,2.05c-0.65,0.86-0.98,2.34-0.98,4.46v85.5
		c0,2.07,0.33,3.54,0.98,4.43c0.66,0.88,1.95,1.58,3.87,2.08v2.42h-21.58v-2.42c1.91-0.5,3.21-1.19,3.86-2.05
		c0.66-0.86,0.99-2.34,0.99-4.46V1122.52z"/>
	<path class="st3" d="M965.56,1124.26v38.55c0,1.56,0.35,2.75,1.05,3.56c0.71,0.81,1.97,1.47,3.79,1.97v2.42h-21.59v-2.42
		c1.82-0.5,3.08-1.16,3.79-1.97c0.71-0.81,1.05-2,1.05-3.56v-87.55c0-1.52-0.35-2.68-1.05-3.48c-0.71-0.81-1.97-1.47-3.79-1.97
		v-2.42h54.38c7.62,0,13.56,0.4,17.8,1.21c4.24,0.81,8.03,2.28,11.37,4.4c3.48,2.12,6.28,5.02,8.4,8.71
		c2.37,4.14,3.56,8.79,3.56,13.94c0,7.07-2.17,13.13-6.51,18.18c-3.33,3.89-7.57,6.6-12.69,8.14c-5.13,1.54-12.44,2.31-21.93,2.31
		H965.56z M965.56,1114.41h38.77c5.76,0,10.04-0.22,12.84-0.68c2.8-0.46,5.31-1.34,7.53-2.65c5.16-3.03,7.73-8.11,7.73-15.22
		c0-7.17-2.57-12.27-7.73-15.3c-2.22-1.31-4.72-2.19-7.49-2.65c-2.78-0.45-7.07-0.68-12.88-0.68h-38.77V1114.41z"/>
</g>
</svg>
